<?xml version="1.0" encoding="UTF-8" standalone="no"?>
<svg
   xmlns:dc="http://purl.org/dc/elements/1.1/"
   xmlns:cc="http://creativecommons.org/ns#"
   xmlns:rdf="http://www.w3.org/1999/02/22-rdf-syntax-ns#"
   xmlns:svg="http://www.w3.org/2000/svg"
   xmlns="http://www.w3.org/2000/svg"
   viewBox="0 0 898.12653 504.79874"
   height="504.79874"
   width="898.12653"
   version="1.1"
   id="svg2">
  <metadata
     id="metadata8">
    <rdf:RDF>
      <cc:Work
         rdf:about="">
        <dc:format>image/svg+xml</dc:format>
        <dc:type
           rdf:resource="http://purl.org/dc/dcmitype/StillImage" />
        <dc:title></dc:title>
      </cc:Work>
    </rdf:RDF>
  </metadata>
  <defs
     id="defs6" />
  <g
     transform="translate(-1,-0.97151991)"
     style="display:inline"
     id="layer2">
    <path
       id="path4141"
       transform="translate(1,0.97151991)"
       d="M 0.15625 -0.20117188 L 0.15625 504.80273 L 45.748047 504.80273 L 128.39258 436.68555 C 174.45865 398.71227 212.26416 367.54115 212.4043 367.41602 C 212.61253 367.23014 158.48917 173.12474 157.76953 171.47656 C 157.59394 171.07443 149.15748 177.89903 115.40039 205.74805 C 88.032939 228.32572 73.018568 240.52044 72.591797 240.52344 C 72.230285 240.52569 71.874418 240.42648 71.798828 240.30273 C 71.723237 240.17898 56.721968 186.75313 38.462891 121.57812 C 20.203815 56.403126 4.9969786 2.1664845 4.6699219 1.0527344 L 4.3007812 -0.20117188 L 0.15625 -0.20117188 z M 6.21875 -0.20117188 C 6.4898834 1.0040213 21.189944 53.744684 39.419922 118.80078 C 60.430065 193.77827 73.045861 238.31339 73.240234 238.19531 C 73.628617 237.95938 155.14446 170.75676 156.28711 169.73047 L 157.12305 168.97852 L 135.66211 92.40625 C 123.85835 50.291919 114.19922 15.70288 114.19922 15.541016 C 114.19922 15.379152 116.8459 11.636472 120.06641 7.2128906 L 125.46484 -0.20117188 L 6.21875 -0.20117188 z M 127.60156 -0.20117188 L 122.66016 6.5742188 C 117.88415 13.123376 117.28172 14.072553 118.01172 13.890625 C 119.42952 13.537286 164.19802 1.2412936 169.33594 -0.20117188 L 127.60156 -0.20117188 z M 175.83594 -0.20117188 L 149.22656 7.0996094 C 133.01428 11.539247 119.15802 15.331001 118.43555 15.523438 L 117.12305 15.873047 L 182.48242 55.087891 L 247.8418 94.304688 L 258.49609 85.509766 C 264.35571 80.672782 278.6237 68.92152 290.20312 59.396484 C 301.78253 49.871451 311.23253 41.977338 311.20312 41.853516 C 311.17369 41.729691 295.1751 32.043051 275.65039 20.328125 L 241.43359 -0.20117188 L 175.83594 -0.20117188 z M 244.75 -0.20117188 L 278.58789 20.029297 C 310.76468 39.31253 313.38133 40.939323 313.39062 41.679688 C 313.39948 42.381036 309.44073 45.742849 281.4375 68.828125 C 250.44105 94.380932 249.49379 95.192511 250.14062 95.628906 C 250.50747 95.876406 298.74363 124.84186 357.33008 159.99609 L 463.84961 223.91211 L 464.39648 223.2207 C 464.69732 222.84011 465.55381 222.171 466.29883 221.73438 C 467.35096 221.1178 467.62434 220.79863 467.52734 220.30859 C 467.23474 218.8299 407.37451 2.4178247 406.53516 -0.20117188 L 244.75 -0.20117188 z M 408.39844 -0.20117188 C 408.57319 0.45964912 422.06392 49.308093 438.75781 109.72852 L 469.30273 220.2793 L 471.26953 220.47656 C 476.34559 220.98521 479.41183 224.23674 479.42773 229.12891 C 479.43643 231.81433 478.74076 233.50056 476.85352 235.36914 L 475.62305 236.58789 L 543.83594 371.14844 L 611.60156 504.80273 L 863.78516 504.80273 C 862.97957 499.45097 849.61398 423.39493 833.31445 331.16602 L 802.63672 157.57812 L 760.6875 78.378906 L 719.04883 -0.20117188 L 408.39844 -0.20117188 z M 721.08203 -0.20117188 C 721.70217 1.0668189 739.57996 34.855754 761.67578 76.578125 C 784.15702 119.02827 802.55455 153.74125 802.56055 153.71875 C 802.58404 153.63448 801.81883 35.088754 801.73633 26.052734 L 801.65039 16.625 L 790.09961 7.8339844 L 779.57422 -0.20117188 L 721.08203 -0.20117188 z M 782.34375 -0.20117188 C 786.99946 3.3531197 790.59732 6.1129647 795.13867 9.5097656 C 792.25182 6.2104201 789.20009 3.0384888 786.23633 -0.20117188 L 782.34375 -0.20117188 z M 788.57422 -0.20117188 L 795.74219 7.5527344 C 801.98783 14.340976 803.50808 16.158576 803.76953 17.152344 C 803.94692 17.826603 825.41211 85.105293 851.4707 166.66016 L 898.15625 312.74805 L 898.15625 40.9375 L 887.59961 21.017578 C 881.58551 9.6701863 876.76696 0.67104767 876.24609 -0.20117188 L 788.57422 -0.20117188 z M 878.32617 -0.20117188 C 878.61565 0.3776715 882.95746 8.6078886 888.5 19.076172 C 893.40984 28.349461 897.05816 35.194836 898.15625 37.208984 L 898.15625 -0.20117188 L 878.32617 -0.20117188 z M 116.3457 17.384766 L 116.7168 18.632812 C 116.92072 19.318466 126.39478 53.123021 137.76953 93.755859 C 150.11699 137.86344 158.58224 167.60314 158.77734 167.55664 C 159.07972 167.48457 246.47677 95.535966 246.38867 95.431641 C 246.36694 95.405901 217.09883 77.83468 181.34766 56.384766 L 116.3457 17.384766 z M 803.40234 21.925781 C 803.37348 21.954794 803.54566 52.326259 803.7832 89.417969 L 804.21484 156.85742 L 851.53125 245.18359 L 898.15625 332.21484 L 898.15625 318.35742 L 851.24023 171.47656 C 824.95846 89.19505 803.43114 21.896771 803.40234 21.925781 z M 247.67188 96.777344 C 246.76749 97.342142 159.35115 169.49428 159.25195 169.75781 C 159.14147 170.05139 213.7898 365.36559 214.07031 365.67969 C 214.16887 365.79006 224.44289 357.46037 236.90039 347.16992 C 249.35789 336.87947 259.78362 328.45236 260.07031 328.44336 C 260.35885 328.43466 260.90433 328.92996 261.29102 329.55273 C 261.67521 330.17148 267.57551 341.71049 274.40234 355.19336 C 282.47702 371.14067 286.92606 379.6206 287.13281 379.46094 C 288.27922 378.57567 462.46147 234.95758 462.9082 234.5293 C 463.45306 234.00694 463.45195 233.95245 462.83398 232.30078 C 462.12499 230.40588 462.04138 228.04675 462.625 226.42969 L 463.00391 225.38086 L 355.58008 160.92578 C 270.19383 109.69397 248.05804 96.536177 247.67188 96.777344 z M 805.47852 163.3418 C 805.39791 163.58365 864.31668 497.62627 864.99609 500.7793 C 865.15107 501.49852 868.58618 491.49452 882.0957 450.97852 L 898.15625 402.8125 L 898.15625 335.85352 L 852.28906 250.23438 C 826.59832 202.278 805.53362 163.1765 805.47852 163.3418 z M 534.70508 197.05859 C 537.54429 197.05023 538.67152 197.18481 540.66992 197.5957 C 544.06196 198.29315 547.339 199.54505 549.28906 200.88672 C 552.59743 203.16294 555.44207 207.36745 556.62305 211.72852 C 557.36963 214.48601 557.35979 222.28325 556.60547 225.82812 C 555.72956 229.94453 554.40124 234.22766 552.64062 238.61523 C 548.85268 248.05516 545.70054 252.10582 541.24023 253.26758 C 538.19184 254.06158 535.87632 253.72794 532.62891 252.02148 C 527.86662 249.51896 523.73558 244.14406 518.49023 233.62891 C 515.3078 227.24925 513.45396 222.83748 512.08398 218.38086 C 511.37931 216.0885 511.28258 215.25993 511.26758 211.42773 C 511.25132 207.30902 511.29276 206.98613 512.06055 205.34766 C 513.71028 201.82719 517.26209 199.25261 522.34961 197.88867 C 524.34185 197.35456 525.84506 197.22128 531.19922 197.10938 C 532.6216 197.07965 533.75867 197.06138 534.70508 197.05859 z M 575.83984 198.00195 C 578.22185 198.02699 581.45976 198.56913 581.98242 199.0918 C 582.27195 199.38132 581.78513 202.25643 581.32031 203 C 581.09498 203.36049 580.7961 203.35028 579.2832 202.92578 C 578.30823 202.65222 576.73381 202.42773 575.7832 202.42773 C 574.27285 202.42773 573.94402 202.53841 573.17773 203.30469 C 571.39321 205.08919 572.42698 206.58438 576.58594 208.23047 C 581.44726 210.15453 583.10266 212.12793 583.09766 215.99219 C 583.09238 219.94406 581.23842 222.50025 577.5957 223.58203 C 575.66136 224.15643 570.62711 224.1198 568.32422 223.51562 C 566.75909 223.10501 566.59961 222.98876 566.59961 222.25 C 566.59961 221.62645 567.35999 218.79944 567.63086 218.41602 C 567.65528 218.38144 568.52558 218.61808 569.56445 218.94141 C 573.17306 220.06454 576.61732 219.53089 577.5625 217.70312 C 578.65666 215.5872 577.62641 214.05049 574.17773 212.6582 C 570.04859 210.99121 568.85479 210.15397 567.94141 208.28711 C 567.25213 206.87997 567.1483 206.33876 567.25195 204.71094 C 567.50965 200.66373 570.17236 198.32853 574.88086 198.02344 C 575.17576 198.00433 575.49956 197.99838 575.83984 198.00195 z M 592.81641 198.09961 C 594.92542 198.13441 597.0083 198.2716 597.65039 198.48828 C 600.85151 199.56852 602.38014 201.59975 602.39844 204.79688 C 602.40984 206.77404 601.9406 208.17943 600.85742 209.41406 C 600.42296 209.90925 600.47097 210.01736 601.50195 210.86719 C 603.19236 212.26056 603.86719 213.83148 603.86719 216.37891 C 603.86719 219.72432 602.52941 221.78084 599.44922 223.17578 C 598.12799 223.77414 597.41294 223.8607 593.44922 223.9082 C 590.97422 223.93791 588.51086 223.90107 587.97461 223.82617 L 587 223.69141 L 587 211.11523 L 587 198.53906 L 587.82422 198.32617 C 588.57108 198.13242 590.7074 198.06481 592.81641 198.09961 z M 615.94922 198.22852 C 617.3339 198.22852 618.23317 198.36495 618.41992 198.60352 C 618.66193 198.91272 626.59961 223.08395 626.59961 223.51172 C 626.59961 223.76414 623.71434 223.98617 622.52148 223.82617 L 621.33008 223.66797 L 620.58008 221.07227 L 619.82812 218.47852 L 615.87891 218.39453 L 611.92969 218.31055 L 611.29492 220.49414 C 610.94587 221.69512 610.59267 222.91438 610.50977 223.20312 C 610.42682 223.49188 610.11467 223.72852 609.81641 223.72852 C 609.51815 223.72852 608.8865 223.77759 608.41211 223.83789 C 607.29926 223.97934 605.29883 223.75395 605.29883 223.48633 C 605.29784 222.99855 613.19987 198.94325 613.47266 198.60352 C 613.66367 198.36565 614.56859 198.22852 615.94922 198.22852 z M 538.0293 198.99414 C 537.81141 199.05851 538.29758 199.46612 539.33789 200.26367 C 543.00176 203.07257 547.29673 209.81353 549.32422 215.93945 C 550.23778 218.69967 551.59366 223.96409 551.59766 224.76367 C 551.59937 225.13197 551.70434 225.24389 551.88281 225.06445 C 552.03869 224.9077 552.32359 223.27364 552.51562 221.43555 C 553.61783 210.88495 549.10574 202.44223 540.94922 199.78906 C 539.16918 199.21005 538.24718 198.92977 538.0293 198.99414 z M 530.2832 199.67383 C 527.00019 199.63683 525.5 201.50967 525.5 205.54883 C 525.5 214.70657 536.66138 237.21921 542.67773 240.19727 C 543.37754 240.54365 544.22078 240.82677 544.55078 240.82617 C 545.56511 240.82467 547.01526 239.73136 547.80273 238.37305 C 551.00232 232.85395 549.84633 223.76514 544.53711 212.6875 C 540.44373 204.14671 536.92259 200.58498 531.80078 199.80664 C 531.25818 199.72418 530.7522 199.67911 530.2832 199.67383 z M 592.09961 202.12891 L 592.09961 205.2793 L 592.09961 208.42773 L 592.92578 208.42188 C 595.66043 208.39815 597.5 207.14341 597.5 205.30273 C 597.5 203.41263 595.71722 202.13586 593.07422 202.13086 L 592.09961 202.12891 z M 615.81836 205.73047 C 615.68477 205.73147 614.41091 209.84458 613.47266 213.30273 C 613.34519 213.77263 613.59659 213.82812 615.87305 213.82812 L 618.41602 213.82812 L 617.20312 209.7793 C 616.53536 207.5518 615.91146 205.72987 615.81836 205.73047 z M 592.09961 212.62891 L 592.09961 216.05273 C 592.09961 218.50511 592.20611 219.52494 592.47461 219.64258 C 592.9475 219.84975 595.88601 219.55772 596.79297 219.21289 C 598.14768 218.69784 598.69922 217.82942 598.69922 216.21484 C 598.69922 215.02202 598.54913 214.55106 597.98828 213.99023 C 597.13793 213.13987 595.47458 212.63286 593.52539 212.63086 L 592.09961 212.62891 z M 675.5 231.22852 L 677.15039 231.22852 L 678.80078 231.22852 L 678.80078 235.32422 C 678.80078 239.201 678.82739 239.39657 679.32422 238.96094 C 680.38163 238.0338 681.80835 237.5293 683.36523 237.5293 C 685.51452 237.5293 686.87414 238.28088 687.72461 239.93945 C 688.35921 241.17696 688.40039 241.61998 688.40039 247.3418 L 688.40039 253.42773 L 686.90039 253.42773 L 685.40039 253.42773 L 685.38672 248.85352 C 685.37145 243.4974 685.11313 241.80764 684.19531 241.06445 C 683.27467 240.31896 681.47844 240.37471 680.45508 241.17969 C 679.03386 242.29761 678.80078 243.34462 678.80078 248.61914 L 678.80078 253.42773 L 677.15039 253.42773 L 675.5 253.42773 L 675.5 242.32812 L 675.5 231.22852 z M 567.34961 231.67773 L 571.55078 231.68164 C 575.31662 231.68428 575.88017 231.75341 577.00781 232.35352 C 581.28356 234.62903 581.37034 240.69327 577.16797 243.51562 L 575.96094 244.32812 L 578.92969 248.62695 C 580.5631 250.99186 581.90039 253.03982 581.90039 253.17773 C 581.90039 253.31564 581.09963 253.42773 580.12109 253.42773 L 578.3418 253.42773 L 575.01367 248.63477 C 573.18349 245.99865 571.62036 243.66881 571.53906 243.45703 C 571.44378 243.20873 571.9485 242.87521 572.96094 242.51562 C 578.51052 240.54459 577.72891 234.22852 571.93555 234.22852 L 570.5 234.22852 L 570.5 243.82812 L 570.5 253.42773 L 568.8457 253.42773 L 567.19336 253.42773 L 567.27148 242.55273 L 567.34961 231.67773 z M 464.63281 235.39453 L 376.49219 308.05078 C 328.01432 348.01225 288.19093 380.85868 287.99609 381.04297 C 287.72739 381.29716 291.65427 389.27494 304.25781 414.07812 C 313.39674 432.06313 320.9179 446.89042 320.9707 447.02734 C 321.0235 447.16423 378.50391 460.41564 448.70703 476.47461 L 572.32227 504.80273 L 609.74609 504.80273 C 609.25396 503.80247 579.10396 444.39378 542 371.22656 C 489.67931 268.05264 473.94611 237.27206 473.59961 237.40234 C 471.47735 238.2003 468.12759 237.70798 465.97656 236.2832 L 464.63281 235.39453 z M 637.64648 237.50781 C 639.28544 237.48624 640.97392 237.73154 641.9043 238.20312 C 644.26701 239.40072 644.44922 240.03102 644.44922 246.97852 L 644.44922 252.97852 L 642.5 253.32031 C 639.08708 253.91997 636.37311 253.71922 634.48047 252.72656 C 632.8716 251.88272 632.06513 249.66286 632.5625 247.44922 C 633.14483 244.85743 635.2943 243.54556 638.97461 243.53516 C 641.23181 243.52877 641.30078 243.50704 641.30078 242.80273 C 641.30078 241.67146 640.99688 241.14307 640.07812 240.66797 C 639.07721 240.15037 637.11793 240.10307 635.48438 240.55664 C 634.12861 240.93307 633.81269 240.66128 633.80469 239.11719 C 633.80061 238.26099 633.92336 238.12214 634.92578 237.84375 C 635.69806 237.62928 636.66311 237.52076 637.64648 237.50781 z M 607.77148 237.52539 C 608.59993 237.54793 609.44899 237.65716 610.26758 237.86328 C 611.69435 238.22254 611.78417 238.40925 611.26367 239.90234 C 611.01434 240.61765 610.80278 240.81383 610.43945 240.66602 C 610.17038 240.55655 609.11031 240.39444 608.08398 240.30664 C 606.64977 240.1839 606.04227 240.26235 605.45898 240.64453 C 603.91422 241.65669 604.88582 243.05369 607.79102 243.99609 C 611.08088 245.06328 611.90144 246.00472 611.89844 248.7168 C 611.89697 250.75015 611.15164 251.95659 609.35938 252.82422 C 607.73328 253.61139 605.01488 253.83941 602.67578 253.38672 C 600.96644 253.0559 600.82477 252.80597 601.41211 251.12109 L 601.72656 250.22266 L 603.62305 250.64844 C 605.96893 251.17468 607.73861 250.80676 608.50781 249.63281 C 609.33062 248.37703 608.606 247.48246 605.93945 246.46484 C 604.72775 246.00243 603.35415 245.35292 602.88867 245.02148 C 601.35213 243.92736 600.99748 241.19633 602.16016 239.42188 C 602.97729 238.17476 605.28616 237.45777 607.77148 237.52539 z M 591.19922 237.5293 C 593.48996 237.5293 594.66123 238.0156 596.04297 239.54688 C 597.21213 240.84258 597.80078 242.7331 597.80078 245.19336 L 597.80078 246.5293 L 592.55078 246.5293 C 588.54728 246.5293 587.30164 246.61834 587.30664 246.9043 C 587.32296 247.83342 588.52003 249.82331 589.30078 250.21875 C 590.98576 251.07218 593.63204 251.09543 595.75391 250.27539 C 596.14682 250.12354 596.32948 250.33307 596.57812 251.22852 C 597.00889 252.77981 597.0284 252.72419 595.92578 253.11133 C 594.37172 253.65697 590.62278 253.77667 589.04688 253.33008 C 587.21181 252.81006 585.65714 251.59707 584.82227 250.03516 C 584.24853 248.96172 584.15039 248.31757 584.15039 245.62891 C 584.15039 242.97249 584.25081 242.29128 584.79688 241.2793 C 586.17216 238.73061 588.22304 237.5293 591.19922 237.5293 z M 622.66992 237.53516 C 626.71104 237.55101 629 240.11392 629 244.62305 L 629 246.5293 L 623.86133 246.5293 L 618.7207 246.5293 L 618.90234 247.63867 C 619.28481 249.9956 621.85051 251.32942 624.9082 250.75977 C 625.75606 250.60181 626.68423 250.38081 626.9707 250.26953 C 627.35821 250.11899 627.57213 250.28045 627.80859 250.90234 C 628.40613 252.47403 628.11542 252.94361 626.30078 253.32422 C 622.23344 254.1773 619.03211 253.44646 617.07617 251.21875 C 615.80294 249.76861 615.35428 248.26686 615.36328 245.47852 C 615.3793 240.37103 618.00495 237.51686 622.66992 237.53516 z M 667.78906 237.55078 C 669.71607 237.57107 671.60203 237.89423 671.59766 238.38281 C 671.59676 238.49042 671.45284 239.0965 671.27734 239.72852 C 671.02738 240.6287 670.85009 240.83399 670.45508 240.67578 C 669.18086 240.16544 666.64019 240.19547 665.59961 240.73438 C 662.6402 242.26701 662.34617 248.39505 665.14844 250.12695 C 666.25589 250.81138 667.77851 250.97714 669.83594 250.63477 C 671.12024 250.42104 671.23759 250.45492 671.4082 251.0918 C 671.76445 252.42176 671.62292 253.05279 670.92578 253.24219 C 669.91892 253.51579 666.43745 253.71816 665.75 253.54297 C 662.8592 252.80629 661.63177 251.88704 660.60938 249.69141 C 659.60364 247.532 659.60549 243.72087 660.61328 241.55664 C 661.42517 239.81306 663.01921 238.36741 664.67578 237.87109 C 665.46102 237.63583 666.63286 237.53861 667.78906 237.55078 z M 649.40039 237.82812 L 650.75781 237.82812 C 652.02474 237.82812 652.1277 237.88857 652.29492 238.72461 L 652.47266 239.62109 L 653.35938 238.875 C 654.39758 238.00141 655.23181 237.74703 656.63281 237.88086 C 657.72917 237.98559 658.03721 238.64595 657.66992 240.10938 C 657.52202 240.69874 657.29732 240.82812 656.42969 240.82812 C 654.94688 240.82812 653.76639 241.52469 653.19141 242.73633 C 652.80057 243.55994 652.69922 244.751 652.69922 248.59961 L 652.69922 253.42773 L 651.05078 253.42773 L 649.40039 253.42773 L 649.40039 245.62891 L 649.40039 237.82812 z M 591.05078 240.22852 C 590.38172 240.22852 589.53367 240.43976 589.16602 240.69727 C 588.43441 241.20971 587.59961 242.62903 587.59961 243.36328 C 587.59961 243.75617 588.13499 243.82812 591.05078 243.82812 C 594.84347 243.82812 594.94724 243.7648 594.05078 242.03125 C 593.41628 240.80428 592.45865 240.22852 591.05078 240.22852 z M 622.62891 240.24609 C 621.97319 240.22624 621.28731 240.33863 620.74023 240.58789 C 620.02194 240.91518 618.80078 242.75847 618.80078 243.51562 C 618.80078 243.71414 620.10146 243.82812 622.37891 243.82812 L 625.95898 243.82812 L 625.71094 243.00391 C 625.26331 241.51361 625.05873 241.17087 624.33594 240.69727 C 623.91057 240.41855 623.28462 240.26595 622.62891 240.24609 z M 639.33008 245.98633 C 638.34851 245.99542 637.30025 246.25541 636.60156 246.69727 C 635.18292 247.59443 635.54552 250.06281 637.19336 250.72656 C 637.96916 251.03907 639.67268 251.09505 640.625 250.83984 C 641.2472 250.67309 641.30078 250.48638 641.30078 248.45703 L 641.30078 246.25586 L 640.27344 246.0625 C 639.97647 246.00679 639.65727 245.9833 639.33008 245.98633 z M 259.5957 330.77148 C 258.05977 331.96176 215.8883 366.7482 215.33984 367.27734 L 214.62891 367.96484 L 221.28125 391.77148 C 224.94012 404.86543 228.07148 416.01648 228.24023 416.55273 C 228.53507 417.48973 228.60822 417.5293 230.11914 417.5293 C 232.1402 417.5293 234.29676 418.17625 236 419.29492 C 236.7425 419.78257 237.52185 420.12665 237.73242 420.06055 C 237.943 419.99446 248.77804 411.14521 261.81055 400.39453 L 285.50586 380.84766 L 280.14258 370.3125 C 277.19208 364.51839 271.43944 353.1911 267.35938 345.14062 C 262.13065 334.82365 259.83922 330.58278 259.5957 330.77148 z M 213.13477 369.36328 C 212.99283 369.22135 56.565776 497.91785 48.5 504.80273 L 273.08008 504.80273 C 272.02197 502.82646 237.11104 440.9569 235.23438 437.73242 L 234.50781 436.48438 L 233.07812 436.92969 C 229.92075 437.91075 225.26297 436.59752 223.08008 434.11133 C 218.92612 429.38024 220.11328 421.86849 225.50195 418.7793 L 226.90039 417.97852 L 220.10742 393.76172 C 216.37201 380.4425 213.23482 369.46333 213.13477 369.36328 z M 285.88477 382.85547 C 285.80423 382.86331 285.73802 382.91881 285.66211 382.98633 C 285.17861 383.41641 239.15806 421.30326 238.74023 421.61523 C 238.68009 421.66014 238.9474 422.34631 239.33398 423.13867 C 239.80792 424.1101 240.07344 425.26767 240.14844 426.69336 L 240.25977 428.80664 L 279.00391 437.68945 C 300.31381 442.57507 317.99805 446.58626 318.30078 446.60156 C 318.73554 446.62343 317.62585 444.21751 313.02148 435.1543 C 309.8152 428.84305 302.48499 414.40031 296.73242 403.06055 C 287.64507 385.1471 286.44852 382.80055 285.88477 382.85547 z M 898.15625 408.19141 L 882.4668 455.27734 C 877.15876 471.22954 872.4632 485.31873 866.29688 504.80273 L 898.15625 504.80273 L 898.15625 408.19141 z M 240.24805 430.56445 C 239.93272 430.61976 239.70295 430.94631 239.29688 431.78516 C 238.93608 432.53045 238.06292 433.71832 237.35742 434.42383 L 236.07617 435.70508 L 255.55664 470.19141 C 265.99081 488.6617 274.46351 503.71379 275.07422 504.80273 L 348.35352 504.80273 L 342.69141 493.6543 C 339.31443 487.01305 332.82536 474.22881 328.26953 465.24609 C 323.71367 456.26337 319.9362 448.86393 319.875 448.80273 C 319.81377 448.74147 302.09688 444.65435 280.50586 439.7207 C 258.91483 434.78705 240.95833 430.67794 240.60156 430.58984 C 240.46771 430.55678 240.35315 430.54602 240.24805 430.56445 z M 322.26172 449.37891 C 322.21393 449.43336 328.60039 462.13477 336.45508 477.60352 L 350.26562 504.80273 L 565.00586 504.80273 C 552.35068 501.81393 322.3382 449.2918 322.26172 449.37891 z "
       style="fill:#0091c7;fill-opacity:1" />
  </g>
</svg>
