<?xml version="1.0" encoding="UTF-8" standalone="no"?>
<svg
   xmlns:dc="http://purl.org/dc/elements/1.1/"
   xmlns:cc="http://creativecommons.org/ns#"
   xmlns:rdf="http://www.w3.org/1999/02/22-rdf-syntax-ns#"
   xmlns:svg="http://www.w3.org/2000/svg"
   xmlns="http://www.w3.org/2000/svg"
   viewBox="0 0 903.59998 673.20001"
   height="673.20001"
   width="903.59998"
   version="1.1"
   id="svg2">
  <metadata
     id="metadata8">
    <rdf:RDF>
      <cc:Work
         rdf:about="">
        <dc:format>image/svg+xml</dc:format>
        <dc:type
           rdf:resource="http://purl.org/dc/dcmitype/StillImage" />
        <dc:title></dc:title>
      </cc:Work>
    </rdf:RDF>
  </metadata>
  <defs
     id="defs6" />
  <g
     style="display:inline"
     id="layer4">
    <rect
       y="-23.691486"
       x="-16.136417"
       height="746.30927"
       width="970.20209"
       id="rect4491"
       style="color:#000000;display:inline;overflow:visible;visibility:visible;opacity:1;fill:#0093cf;fill-opacity:1;fill-rule:nonzero;stroke:none;stroke-width:0.30000001;stroke-linecap:round;stroke-linejoin:round;stroke-miterlimit:4;stroke-dasharray:none;stroke-dashoffset:0;stroke-opacity:1;marker:none;enable-background:accumulate" />
    <path
       id="rect4168"
       d="m -36.306641,-40.835938 0,804.802738 1002.474611,0 0,-804.802738 -1002.474611,0 z M 0,0 37.986328,0 75.970703,0 75.232422,0.97460938 C 68.745174,9.5465638 23.099609,72.465733 23.099609,72.835938 c 0,0.281447 11.698838,42.261582 25.998047,93.289062 14.299209,51.02749 25.942959,92.8237 25.875,92.88086 -0.06796,0.0571 -16.728437,13.78061 -37.023437,30.49609 C 17.65422,306.21744 0.81414063,320.09661 0.52539062,320.34375 L 0,320.79297 0,160.39648 0,0 Z m 78.412109,0 4.71875,0 4.71875,0 30.916011,18.525391 c 17.00307,10.18875 30.9182,18.595948 30.92383,18.683593 0.008,0.122694 -53.417749,14.829264 -120.535153,33.179688 -1.372341,0.375207 -2.452731,0.571687 -2.400391,0.435547 0.05234,-0.136143 11.697117,-16.12873 25.876953,-35.53711 L 78.412109,0 Z m 215.072271,0 34.5996,0 34.59961,0 0.44922,1.5742188 C 364.0557,4.809378 451.16295,320.28048 451.33203,321 l 0.1543,0.64844 a 10.607892,10.607892 0 0 0 -4.78125,3.64453 L 317.00391,247.47266 C 245.5981,204.62919 187.11223,169.51261 187.03516,169.43555 c -0.0771,-0.0771 17.34402,-14.55629 38.71289,-32.17578 l 38.85156,-32.03516 -0.01,-0.78711 -0.01,-0.78711 -54.78711,-32.847656 -54.78711,-32.847656 1.32226,-0.371094 c 0.7274,-0.203424 31.88402,-8.742483 69.23829,-18.976562 L 293.48438,0 Z m 71.27148,0 181.55078,0.07421875 181.55078,0.07617187 64.79883,122.31640938 64.79883,122.31836 23.06445,130.43164 23.06641,130.43359 0.008,83.77539 0.006,83.77344 -136.93164,0 -136.93359,0 -2.5293,-4.875 c -3.88353,-7.48476 -166.19922,-327.676 -166.19922,-327.85156 0.005,-0.004 0.009,-0.008 0.0137,-0.0117 a 10.607892,10.607892 0 0 0 4.83594,-8.89649 10.607892,10.607892 0 0 0 -10.60742,-10.60937 10.607892,10.607892 0 0 0 -1.86328,0.16797 L 409.19922,161.05078 C 384.88004,72.947471 364.90689,0.67585093 364.85352,0.43554688 L 364.75586,0 Z M 744.52539,0.01367188 758.84961,0.02539063 807.67578,37.099609 856.5,74.173828 l 0,11.587891 c 2.1e-4,6.373683 0.20792,43.634691 0.46094,82.802731 0.25299,39.16805 0.40759,71.26623 0.34375,71.33008 -0.0639,0.0638 -28.68947,-53.81666 -63.61133,-119.73633 C 758.77147,54.238544 730.19922,0.23581465 730.19922,0.15234375 c 0,-0.0834709 6.44742,-0.14576551 14.32617,-0.13867187 z M 775.22461,0.01757813 788.25,0.03320312 812.84961,26.748047 c 13.53,14.693108 27.13805,29.46892 30.24023,32.833984 3.10218,3.365064 5.60047,6.110587 5.55078,6.101563 -0.0497,-0.009 -19.43985,-14.711612 -43.08789,-32.671875 C 781.90469,15.05146 762.47713,0.2759524 762.37891,0.17773438 762.28071,0.07951632 768.06088,0.0082505 775.22461,0.01757813 Z M 188.96484,0.04296875 c 17.53945,0 35.0611,0.0103754 48.32813,0.03125 L 285.53516,0.15039062 219.34375,18.275391 c -36.40617,9.968675 -66.32914,18.158283 -66.49414,18.199218 -0.165,0.04093 -13.92421,-8.11539 -30.57617,-18.125 L 91.998047,0.15039062 140.52344,0.07421875 c 13.34454,-0.0208746 30.90196,-0.03125 48.4414,-0.03125 z m 697.95704,0.0078125 c 10.20253,0.0046066 16.5503,0.02099733 16.57812,0.04882812 0.0557,0.05566159 0.0669,48.35841063 0.0254,107.33984063 l -0.0762,107.24024 -22.1836,-69.44336 C 869.06393,107.04268 858.9346,75.223626 858.75781,74.527344 L 858.4375,73.261719 824.72852,36.705078 791.02148,0.15039062 847.20898,0.07421875 c 15.45189,-0.02084152 29.51036,-0.02804406 39.7129,-0.0234375 z M 152.31836,38.679688 l 54.93359,32.960937 54.93555,32.960935 -38.15234,31.47461 c -20.98387,17.31064 -38.36429,31.62803 -38.62305,31.81641 l -0.4707,0.3418 L 105.79883,120.75 C 62.270123,94.632733 26.766247,73.197896 26.902344,73.117188 27.038441,73.036479 55.313321,65.253849 89.734375,55.824219 L 152.31836,38.679688 Z M 25.099609,74.796875 c -0.138842,-0.195674 6.621755,3.876832 79.537111,47.611325 62.27615,37.35313 78.60725,47.27132 78.30078,47.55469 -0.21299,0.19692 -23.94578,19.76576 -52.73828,43.48633 -28.7925,23.72056 -52.571384,43.32146 -52.843751,43.55859 -0.27237,0.23713 -0.559844,0.32199 -0.638672,0.1875 -0.07882,-0.1345 -11.583226,-41.08359 -25.564453,-90.99609 C 37.171117,116.28672 25.659633,75.326978 25.570312,75.177734 25.531538,75.112947 25.13165,74.84203 25.099609,74.796875 Z m 833.298831,5.705078 c 0.0504,-0.05041 10.24286,31.682457 22.64844,70.517577 l 22.55468,70.60938 -0.0762,52.38086 -0.0762,52.38281 -22.07031,-41.1836 -22.07032,-41.18359 -0.5,-81.7168 c -0.27537,-44.94403 -0.46055,-81.756234 -0.41015,-81.806637 z m -673.20117,90.193357 0.62695,0.40039 c 0.34459,0.22074 58.87867,35.34116 130.07617,78.04492 71.11393,42.65367 129.52461,77.6861 129.7793,77.8711 a 10.607892,10.607892 0 0 0 -1.03907,4.55273 10.607892,10.607892 0 0 0 1.85938,5.97852 l -0.5918,0.54883 c -0.43602,0.41004 -211.89077,174.7465 -213.30664,175.86328 -0.24911,0.1965 -1.76561,-2.50068 -5.29101,-9.41406 -2.71779,-5.32968 -9.76858,-19.2093 -15.66797,-30.8418 -5.8994,-11.6325 -10.87534,-21.25321 -11.0586,-21.38086 -0.18326,-0.12765 -0.61091,-0.18615 -0.94921,-0.12891 -0.33829,0.0572 -12.93949,10.26874 -28.00196,22.69141 -15.06246,12.42267 -27.4868,22.47035 -27.60937,22.32812 -0.12257,-0.14226 -15.17142,-53.63685 -33.44336,-118.87695 l -33.222658,-118.61914 0.396484,-0.38281 c 0.217767,-0.2111 24.482014,-20.2407 53.919924,-44.50977 l 53.52344,-44.125 z m 675.30664,79.90625 c 0.0252,-0.0266 9.73321,18.03391 21.57226,40.13477 l 21.52539,40.18359 -0.0762,81.46094 -0.0762,81.46289 -21.49414,-121.59766 C 870.13244,305.36807 860.47871,250.62813 860.50391,250.60156 Z M 75.544922,261.30078 c 0.215901,0 66.674738,236.77385 66.662108,237.49805 C 142.20208,499.08269 1.6422182,615.24035 0.375,616.00781 L 0,616.23633 0.07421875,469.76172 0.15039062,323.28711 37.734375,292.29297 c 20.67126,-17.04625 37.68629,-30.99219 37.810547,-30.99219 z m 456.048828,29.16211 c -0.90496,-0.0189 -1.82793,-0.0167 -2.76953,0.006 -1.07612,0.0258 -2.17563,0.0782 -3.29883,0.1582 -8.39547,0.59833 -13.6087,2.39222 -17.20117,5.91797 -6.32715,6.20963 -5.80269,15.40451 1.85742,32.52539 7.66473,17.1313 15.04666,26.72223 22.59766,29.35938 l 1.9707,0.6875 3,-0.0937 3,-0.0957 1.65039,-0.76757 c 3.62757,-1.68861 6.35287,-5.0164 9.57031,-11.6875 3.40728,-7.06476 5.85532,-14.23345 7.30078,-21.38086 l 0.67383,-3.3418 -0.0195,-5.40039 -0.0215,-5.40039 -0.65039,-2.39844 c -0.35694,-1.32 -1.27648,-3.6825 -2.04493,-5.25 l -1.39843,-2.85156 -2.58008,-2.58399 -2.58008,-2.58593 -2.87109,-1.39258 c -4.42084,-2.14548 -9.85083,-3.29183 -16.18555,-3.42383 z m 70.03516,1.44727 c -1.06847,0.006 -2.09107,0.0465 -2.97071,0.1289 l -2.25781,0.21289 0,15.26758 0,15.26953 0.67383,0.14844 c 2.41338,0.53535 9.20104,0.55262 11.66992,0.0293 5.28639,-1.12047 7.75586,-4.03877 7.75586,-9.16211 l 0,-2.28711 -0.77344,-1.55078 c -0.70926,-1.42335 -1.82475,-2.64382 -3.03711,-3.32227 l -0.47851,-0.26758 0.78515,-1.02929 c 3.36669,-4.41396 1.70356,-10.89649 -3.25586,-12.68555 -1.29966,-0.46884 -4.90592,-0.76951 -8.11132,-0.75195 z m -17.65235,0.041 c -0.53796,-0.005 -1.13812,0.004 -1.82617,0.0234 l -3.59961,0.10156 -1.56836,0.69531 c -3.92922,1.74338 -5.73592,6.0442 -4.41211,10.50196 0.73422,2.47233 2.29985,3.82022 6.43946,5.54297 4.63704,1.92978 5.58421,2.5742 5.99023,4.08203 l 0.32422,1.20898 -0.57031,1.29297 c -0.83868,1.896 -2.15076,2.46086 -5.60352,2.41211 -1.92207,-0.0273 -3.21408,-0.22396 -4.48242,-0.67969 -0.97992,-0.35211 -1.8747,-0.53769 -1.98828,-0.41211 -0.33471,0.3702 -1.14012,3.14413 -1.23828,4.26172 l -0.0918,1.03125 1.34961,0.41016 c 2.68353,0.81285 3.81108,0.94304 7.35156,0.85547 l 3.59961,-0.0898 1.77539,-0.68554 c 4.3812,-1.69179 6.75353,-6.03011 5.88086,-10.75391 -0.66294,-3.58857 -2.53745,-5.37153 -7.92578,-7.53711 -3.88113,-1.55988 -4.98047,-2.47134 -4.98047,-4.12695 0,-2.84313 4.15198,-3.96419 8.68555,-2.34571 0.73515,0.26245 1.50616,0.41137 1.71289,0.33204 0.48807,-0.18729 1.36915,-3.22253 1.24609,-4.29297 l -0.0957,-0.83008 -2.09961,-0.53906 c -1.20409,-0.30931 -2.25917,-0.44384 -3.87305,-0.45899 z m 44.09961,0.39844 -4.88281,15 c -2.68617,8.25 -4.88624,15.09146 -4.88867,15.20312 -0.0114,0.52347 4.91942,0.7433 5.69531,0.25391 0.2475,-0.15609 0.86277,-1.67153 1.36719,-3.36914 l 0.91797,-3.08789 4.77343,0 4.77344,0 0.93359,3.11133 c 0.57819,1.92534 1.13499,3.22189 1.46094,3.40429 0.52485,0.29373 5.37922,0.22852 5.6836,-0.0762 0.0881,-0.0882 -2.04793,-6.97203 -4.74805,-15.29883 l -4.91016,-15.14062 -3.08789,0 -3.08789,0 z m -91.79101,0.50586 c 0.0462,-0.005 0.10885,-0.004 0.1875,0.004 0.37749,0.0384 1.13176,0.22878 2.30078,0.55273 7.59987,2.10604 12.49681,7.1209 14.78515,15.13867 l 0.68555,2.39844 0.002,5.25 c 0.003,5.13705 -0.282,8.70117 -0.69726,8.70117 -0.11439,0 -0.52219,-1.45086 -0.90625,-3.22461 -2.64615,-12.22035 -8.76248,-23.43491 -15.08399,-27.65625 -1.13442,-0.75754 -1.59707,-1.12649 -1.27343,-1.16406 z m -8.61133,0.8125 c 4.21661,0.12296 9.60931,3.28159 13.01562,8.48633 3.37992,5.16441 7.2688,14.20095 8.94922,20.79492 l 0.99414,3.90039 0.008,4.34961 0.01,4.35156 -0.67773,2.1543 c -1.53168,4.87155 -4.3764,6.90438 -7.47657,5.34375 -4.0344,-2.03094 -9.18068,-9.52748 -14.88476,-21.68555 -4.0623,-8.6586 -6.02804,-15.30862 -6.04883,-20.46289 l -0.0117,-3.15039 0.75,-1.34961 c 0.94978,-1.70961 2.58526,-2.578 4.54688,-2.7168 0.26972,-0.0191 0.54506,-0.0238 0.82617,-0.0156 z M 602.09961,297 l 2.05664,0 c 3.45774,0 5.36232,2.00644 4.46094,4.69727 -0.56928,1.69941 -1.65866,2.32253 -4.28321,2.45507 l -2.23437,0.11328 0,-3.63281 0,-3.63281 z m 28.92969,3.46484 0.5,1.64258 c 0.27465,0.90351 0.974,3.22922 1.55468,5.16797 l 1.05664,3.52539 -3.10546,0 -3.10743,0 0.43165,-1.42578 c 0.23652,-0.78375 0.93449,-3.10946 1.55078,-5.16797 l 1.11914,-3.74219 z m -28.92969,9.06446 2.84766,0.12304 c 4.03254,0.17637 5.76143,1.66598 5.45312,4.69532 C 610.14671,316.84033 608.19114,318 604.24023,318 l -2.14062,0 0,-4.23633 0,-4.23437 z M 703.5,332.09961 l 0,13.34961 0,13.35156 1.76758,0 1.76953,0 0.12695,-5.77539 0.12696,-5.77539 0.53906,-1.2793 c 1.3734,-3.26148 5.70934,-3.76479 6.94531,-0.80664 0.32088,0.76797 0.42383,2.56163 0.42383,7.32617 l 0,6.31055 1.95117,0 1.94922,0 0,-6.43555 c 0,-6.84348 -0.25162,-8.85809 -1.29883,-10.41211 -1.88949,-2.8038 -6.59178,-3.12385 -9.48828,-0.64453 l -1.21289,1.03907 0,-5.125 0,-5.12305 -1.79883,0 -1.80078,0 z m -126.20703,0.30078 c -1.82481,0 -3.74022,0.0844 -4.25586,0.1875 l -0.9375,0.1875 0,13.01367 0,13.01172 1.95117,0 1.94922,0 0,-11.55078 0,-11.55078 1.875,0.008 c 3.15021,0.0111 4.97943,1.15629 5.60547,3.50781 0.77958,2.92827 -0.83556,5.21514 -4.72461,6.69141 -0.77331,0.29352 -1.40625,0.64878 -1.40625,0.78906 0,0.14031 1.82328,2.91651 4.05078,6.16992 l 4.04883,5.91602 2.17578,0.01 c 1.19625,0.005 2.17578,-0.10236 2.17578,-0.23829 0,-0.13593 -1.61642,-2.59471 -3.5918,-5.46484 l -3.59179,-5.21875 1.29687,-0.80664 c 3.23967,-2.01642 4.56402,-5.19916 3.74805,-9.00391 -0.0856,-1.5074 -0.85769,-2.09073 -1.875,-3.10547 -2.00247,-1.9981 -3.84579,-2.55273 -8.49414,-2.55273 z m -129.39258,6.79688 a 10.607892,10.607892 0 0 0 7.34766,2.97461 10.607892,10.607892 0 0 0 3.66406,-0.66016 c 0.64707,0.44118 18.5805,36.04545 84.23828,165.50586 46.1997,91.09398 84.04462,165.7513 84.09961,165.9043 0.06,0.16692 -3.23823,0.26812 -8.25,0.2539 l -8.34961,-0.0234 -168.41211,-38.51367 C 349.61163,613.4563 273.7868,596.08551 273.74023,596.03715 c -0.13212,-0.13716 -40.3357,-79.41753 -40.41796,-79.70313 -0.0682,-0.23677 214.18646,-177.10642 214.57812,-177.13671 z m 172.93945,0.42578 c -3.62044,-0.0411 -6.43677,1.49153 -7.00195,4.12695 -0.74331,3.4659 0.97803,5.49225 5.92578,6.97461 4.97031,1.48917 2.56982,6.0133 -2.68945,5.06836 -0.89286,-0.16044 -1.97093,-0.37056 -2.39453,-0.4668 l -0.76953,-0.17578 -0.35547,1.18555 c -0.72192,2.40963 -0.026,2.76679 5.19531,2.66992 l 3,-0.0566 1.44531,-0.71094 c 4.6062,-2.26788 4.21911,-8.46205 -0.63867,-10.22851 -0.93879,-0.3414 -2.25224,-0.82209 -2.91797,-1.06641 -0.74535,-0.27354 -1.41757,-0.79462 -1.75,-1.35742 l -0.53906,-0.91406 0.47266,-0.72266 c 0.72921,-1.11294 3.19258,-1.32839 6.51367,-0.57227 l 0.78711,0.17774 0.33789,-0.97266 c 0.57186,-1.64043 0.4458,-2.0228 -0.78516,-2.375 -1.33212,-0.38112 -2.62912,-0.5703 -3.83594,-0.58398 z m 18.33985,0.008 c -0.30651,0.005 -0.62026,0.0235 -0.94141,0.0566 -4.94604,0.51048 -7.70614,3.94981 -7.75195,9.66211 -0.0385,4.80168 1.85406,8.05487 5.36328,9.2168 1.78035,0.5895 6.52008,0.66306 8.55078,0.13281 l 1.34961,-0.35156 -0.0606,-1.32032 c -0.0823,-1.76931 -0.35438,-1.9832 -2.00195,-1.56836 -1.84728,0.46515 -5.09983,0.42891 -6.27148,-0.0703 -1.6167,-0.68886 -2.91602,-2.66395 -2.91602,-4.43359 l 0,-0.55469 6.3418,0 6.34179,0 -0.1582,-2.55469 c -0.32906,-5.27445 -3.24814,-8.29483 -7.8457,-8.21484 z m 54.4375,0.006 c -3.9125,0.038 -6.98307,1.86214 -8.45117,5.14453 l -0.70118,1.56836 -0.31445,3.15039 0.31445,3.15039 0.68555,1.53125 c 1.82448,4.0755 6.80738,5.94412 12.2168,4.58203 1.45248,-0.36576 1.53588,-0.56808 1.01562,-2.4414 l -0.3125,-1.12696 -0.81054,0.22852 c -0.44568,0.12486 -1.88899,0.22656 -3.20899,0.22656 l -2.40039,0 -1.00977,-0.7207 c -1.4682,-1.04715 -2.12687,-2.72453 -2.13476,-5.44531 l -0.006,-2.26563 0.76758,-1.54102 c 1.21914,-2.44647 3.53116,-3.2595 7.0039,-2.45898 1.60161,0.36918 1.84606,0.18008 2.04688,-1.60156 l 0.15039,-1.33594 -2.01758,-0.38086 c -0.98329,-0.18553 -1.9311,-0.27244 -2.83398,-0.26367 z m -35.28711,0.0137 c -0.47119,2e-4 -0.96253,0.0241 -1.47266,0.0703 -3.95223,0.35829 -4.32281,0.62271 -3.91601,2.79102 l 0.19726,1.05078 0.95508,-0.17383 c 4.64295,-0.83973 6.78413,-0.43083 7.56641,1.44141 0.24156,0.57813 0.43966,1.29188 0.43945,1.58594 l 0,0.5332 -2.77539,0.006 c -5.37405,0.009 -8.02344,2.03818 -8.02344,6.14062 0,3.05124 1.2819,4.90826 3.90039,5.65235 1.48725,0.42261 6.41784,0.39401 8.54883,-0.0488 l 1.80078,-0.37305 0.0801,-7.03906 0.0801,-7.03906 -0.68164,-1.34571 c -1.07736,-2.13299 -3.40094,-3.25338 -6.69922,-3.25195 z m -56.0957,0.11133 c -0.33186,0.004 -0.6757,0.0151 -1.03516,0.0156 -3.90213,0.007 -6.39165,1.50201 -7.83789,4.70118 l -0.71094,1.57226 -0.50391,3.44922 0.50391,3.45117 0.84766,1.72656 c 1.52514,3.1059 4.06478,4.40088 8.60156,4.38477 1.5675,-0.005 3.45867,-0.16834 4.20117,-0.36133 l 1.34961,-0.35156 -0.0195,-1.41797 c -0.0237,-1.83045 -0.12288,-1.90218 -2.02734,-1.44531 -0.87978,0.21105 -2.61329,0.33409 -3.85352,0.27148 l -2.25586,-0.11523 -1.08789,-0.83008 c -0.96099,-0.73299 -2.00586,-2.90269 -2.00586,-4.16602 0,-0.13506 2.83383,-0.24609 6.29883,-0.24609 l 6.30078,0 0,-2.04687 c 0,-3.81528 -1.38026,-6.54714 -4.00391,-7.92579 -0.87852,-0.62609 -1.76618,-0.67906 -2.76171,-0.66601 z m 79.29101,0.13867 -0.9375,0.002 c -1.55952,0.003 -3.14671,0.58163 -4.24609,1.54688 l -1.04102,0.91406 0,-0.72266 c 0,-1.29192 -0.62447,-1.79147 -2.11133,-1.68554 l -1.33984,0.0957 -0.0781,9.375 -0.0801,9.375 1.95507,0 1.95313,0 0,-5.5039 0,-0.002 c 0,-3.31956 0.13585,-5.91048 0.3418,-6.52539 0.66552,-1.98702 2.45418,-3.26953 4.56054,-3.26953 l 1.02344,0 0.17969,-0.90039 c 0.099,-0.495 0.099,-1.30383 0,-1.79883 l -0.17969,-0.90039 z m -42.41992,2.91602 c 0.65665,0.017 1.34298,0.19581 2.0332,0.55273 0.89652,0.46362 2.04104,2.41698 2.05469,3.50586 l 0.008,0.52539 -4.37109,0 -4.3711,0 0.20508,-0.67578 c 0.76631,-2.54072 2.47145,-3.95933 4.44141,-3.9082 z m -38.00781,0.0566 c 2.02704,0.12107 4.00195,1.72557 4.00195,3.91797 l 0,0.60937 -4.19922,0 -4.20117,0 0,-0.46094 c 0,-0.91536 0.84006,-2.43492 1.7832,-3.22851 0.7626,-0.64169 1.69385,-0.89293 2.61524,-0.83789 z m 58.25586,7.04297 c 0.37148,-10e-4 0.76293,0.0226 1.17187,0.0703 l 1.57422,0.18359 0,2.77344 0,2.77539 -1.39063,0.19141 c -1.98174,0.27162 -2.8337,0.22043 -3.85937,-0.22657 -1.29285,-0.56346 -1.73047,-1.22524 -1.73047,-2.61523 0,-1.96544 1.634,-3.14411 4.23438,-3.15234 z m -459.69727,104.6403 c 0.17381,0.17382 30.68838,60.3765 30.79297,60.75195 0.0854,0.30669 -54.87077,45.92972 -57.67774,47.89844 a 12.259895,12.259895 0 0 0 -8.72851,-3.65625 12.259895,12.259895 0 0 0 -2.58399,0.29102 l -8.36328,-29.81641 -8.4375,-30.07617 0.79688,-0.78711 c 1.23207,-1.22001 54.0881,-44.71854 54.20117,-44.60547 z m -56.68164,46.55664 8.23828,29.36914 c 4.53062,16.15254 8.27675,29.54262 8.32617,29.75586 0.0119,0.0514 -0.0211,0.12545 -0.0859,0.21289 a 12.259895,12.259895 0 0 0 -7.66992,11.36133 12.259895,12.259895 0 0 0 8.52344,11.66992 l 0.34375,0.16406 0.29492,0.0117 a 12.259895,12.259895 0 0 0 3.09766,0.41407 12.259895,12.259895 0 0 0 4.68359,-0.94141 c 0.15149,-0.0108 0.26839,-0.008 0.28906,0.0273 0.0615,0.10602 11.34571,20.10391 25.07618,44.44141 13.73046,24.3375 25.1569,44.55453 25.39258,44.92578 l 0.42968,0.67383 -109.95703,0 -109.95703,0 0,-27.0918 0,-27.0918 59.464844,-49.0332 c 32.70515,-26.96826 64.873356,-53.4963 71.486326,-58.95117 l 12.02344,-9.91797 z m 88.68164,16.63281 c 0.1127,0.11256 6.56975,12.75852 14.34961,28.10352 7.77986,15.345 16.6355,32.79414 19.67969,38.77539 3.04418,5.98125 5.36214,10.85946 5.15039,10.83984 -0.21175,-0.0198 -21.67989,-4.9134 -47.70703,-10.875 l -0.002,0 -47.0039,-10.76757 a 12.259895,12.259895 0 0 0 0.17968,-2.00977 12.259895,12.259895 0 0 0 -2.20507,-6.99023 l 0.27148,-0.21485 c 0.3745,-0.29646 13.37086,-11.00782 28.88086,-23.80273 15.51,-12.79488 28.29356,-23.17116 28.40625,-23.0586 z m -56.03516,58.05664 c 1.6378,0.13033 96.3437,21.87874 96.67774,22.20508 0.28903,0.28236 38.20117,74.81571 38.20117,75.10157 0,0.0502 -19.88162,0.0898 -44.18164,0.0898 l -44.18164,0 -25.73047,-45.57227 -25.70117,-45.52343 a 12.259895,12.259895 0 0 0 4.91601,-6.30079 z m 99.57618,22.79883 c 0.0735,-0.0735 73.6233,16.67165 163.44335,37.21094 l 163.3086,37.34375 -144.51758,0.0215 -144.51758,0.0215 -0.41406,-0.67383 c -1.01109,-1.64751 -37.42221,-73.80437 -37.30273,-73.92383 z"
       style="color:#000000;display:inline;overflow:visible;visibility:visible;opacity:1;fill:#ffffff;fill-opacity:1;fill-rule:nonzero;stroke:none;stroke-width:0.30000001;stroke-linecap:round;stroke-linejoin:round;stroke-miterlimit:4;stroke-dasharray:none;stroke-dashoffset:0;stroke-opacity:1;marker:none;enable-background:accumulate" />
  </g>
</svg>
