<?xml version="1.0" encoding="UTF-8" standalone="no"?>
<svg
   xmlns:dc="http://purl.org/dc/elements/1.1/"
   xmlns:cc="http://creativecommons.org/ns#"
   xmlns:rdf="http://www.w3.org/1999/02/22-rdf-syntax-ns#"
   xmlns:svg="http://www.w3.org/2000/svg"
   xmlns="http://www.w3.org/2000/svg"
   xmlns:sodipodi="http://sodipodi.sourceforge.net/DTD/sodipodi-0.dtd"
   xmlns:inkscape="http://www.inkscape.org/namespaces/inkscape"
   version="1.0"
   width="256mm"
   height="147mm"
   id="svg2"
   inkscape:version="0.91 r13725"
   viewBox="0 0 256 147"
   sodipodi:docname="sbaTitleWide.svg"
   shape-rendering="crispEdges">
  <metadata
     id="metadata11">
    <rdf:RDF>
      <cc:Work
         rdf:about="">
        <dc:format>image/svg+xml</dc:format>
        <dc:type
           rdf:resource="http://purl.org/dc/dcmitype/StillImage" />
        <dc:title></dc:title>
      </cc:Work>
    </rdf:RDF>
  </metadata>
  <sodipodi:namedview
     pagecolor="#0091c7"
     bordercolor="#666666"
     borderopacity="1"
     objecttolerance="10"
     gridtolerance="10"
     guidetolerance="10"
     inkscape:pageopacity="1"
     inkscape:pageshadow="2"
     inkscape:window-width="1920"
     inkscape:window-height="1045"
     id="namedview9"
     inkscape:document-units="mm"
     showgrid="false"
     inkscape:zoom="256"
     inkscape:cx="907.48059"
     inkscape:cy="99.155061"
     inkscape:window-x="1366"
     inkscape:window-y="16"
     inkscape:window-maximized="0"
     inkscape:current-layer="layer2"
     inkscape:showpageshadow="false"
     borderlayer="false" />
  <defs
     id="defs4">
    <pattern
       id="EMFhbasepattern"
       patternUnits="userSpaceOnUse"
       width="6"
       height="6"
       x="0"
       y="0" />
  </defs>
  <g
     inkscape:groupmode="layer"
     id="layer2"
     inkscape:label="Layer 2">
    <rect
       style="color:#000000;display:inline;overflow:visible;visibility:visible;opacity:1;fill:#ffffff;fill-opacity:1;fill-rule:nonzero;stroke:none;stroke-width:0.30000001;stroke-linecap:round;stroke-linejoin:round;stroke-miterlimit:4;stroke-dasharray:none;stroke-dashoffset:0;stroke-opacity:1;marker:none;enable-background:accumulate"
       id="rect4142"
       width="256"
       height="147"
       x="2.1684043e-19"
       y="8.5671746e-07" />
  </g>
  <g
     inkscape:groupmode="layer"
     id="layer1"
     inkscape:label="Layer 1"
     style="display:inline">
    <path
       style="fill:#0091c7;fill-opacity:1;fill-rule:nonzero;stroke:none"
       d="M 0,-8.567175e-7 0,146.99999 l 12.974637,0 23.599826,-19.86127 c 13.101716,-11.01763 23.874899,-20.09599 23.91723,-20.1173 0.0635,-0.0639 -15.36619,-56.579305 -15.57785,-57.04814 -0.04233,-0.127864 -2.434083,1.85403 -12.064586,9.973119 -7.788981,6.585002 -12.064444,10.101266 -12.19144,10.101266 -0.10583,0.02131 -0.21166,-0.02131 -0.232826,-0.04262 C 20.403826,69.962422 16.128334,54.427214 10.92154,35.460701 5.7147757,16.473048 1.3757748,0.6819355 1.2699479,0.36227801 L 1.1641183,-8.567175e-7 l -1.1641183,0 z m 1.7144299,0 C 1.7990909,0.34096732 5.9899047,15.684552 11.196698,34.650895 17.165437,56.45173 20.784813,69.429655 20.848311,69.387033 20.95414,69.323102 44.173035,49.760172 44.490524,49.461824 L 44.744516,49.248716 38.627559,26.979132 C 35.262174,14.70426 32.510602,4.6243902 32.510602,4.5604581 c 0,-0.042621 0.740808,-1.1081557 1.650944,-2.4080964 L 35.748991,-8.567175e-7 l -34.0345611,0 z m 34.6272071,0 L 34.902353,1.981879 C 33.547733,3.8785161 33.378406,4.1342444 33.590065,4.091623 33.992218,3.9850695 46.776446,0.40489939 48.236896,-8.567175e-7 l -11.895259,0 z m 13.736696,0 L 42.500926,2.131051 C 37.865585,3.4096809 33.907555,4.4965261 33.717061,4.5604581 L 33.336074,4.6883223 51.983267,16.089455 70.609013,27.511899 73.635742,24.954616 C 75.329017,23.52683 79.392878,20.117148 82.673599,17.368068 85.996651,14.576397 88.66356,12.296181 88.66356,12.25356 88.64239,12.21094 84.091717,9.3766454 78.525075,5.9669352 L 68.788742,-8.567175e-7 l -18.710409,0 z m 19.662876,0 L 79.392878,5.8816925 c 9.143686,5.6473045 9.90566,6.1161395 9.90566,6.3292465 0,0.191796 -1.142961,1.150777 -9.101354,7.884898 -8.847363,7.437374 -9.122521,7.671791 -8.932027,7.799655 0.08467,0.06393 13.863691,8.52419 30.563343,18.73201 l 30.35195,18.603947 c 0.0423,-0.06393 0.0847,-0.127865 0.14816,-0.170485 l 0.0212,-0.04262 c 0.0212,-0.02131 0.0635,-0.06393 0.12699,-0.106555 0.23283,-0.234416 0.50799,-0.426213 0.80431,-0.554077 C 133.11175,63.590526 116.09434,0.74586757 115.84035,-8.567175e-7 l -46.099141,0 z m 46.628291,0 C 116.433,0.19179392 120.26402,14.427222 125.02636,31.987058 l 8.72009,32.242789 c 0.14816,-0.02131 0.31749,-0.04262 0.46564,-0.04262 1.41813,0 2.53992,1.172087 2.53992,2.621214 0,0.89505 -0.44449,1.726167 -1.16412,2.195 L 154.97588,108.08697 174.30011,147 l 71.90041,0 c -0.23282,-1.577 -4.06386,-23.71852 -8.72036,-50.548675 L 228.75979,45.924249 216.80103,22.866198 204.90606,-8.567175e-7 l -88.53656,0 z m 89.15037,0 C 205.6892,0.36227801 210.78991,10.186424 217.07619,22.333431 c 6.41328,12.381396 11.66243,22.482663 11.66243,22.482663 0.0212,-0.02131 -0.23282,-34.565739 -0.25399,-37.1869251 l -0.0212,-2.706429 -3.28073,-2.5572713 -3.00555,-2.3654694567175 -16.65732,0 z m 17.44045,0 C 224.29377,1.0229037 225.33091,1.8540149 226.60086,2.8343009 225.79656,1.8753256 224.92875,0.91635308 224.08212,-8.567175e-7 l -1.1218,0 z m 1.79911,0 L 226.77019,2.2589151 c 1.79911,1.9605721 2.24359,2.5146499 2.32826,2.8129996 0.0423,0.1917961 6.15929,19.7548663 13.56736,43.4948593 l 13.33427,42.535852 0,-79.104794 -3.02674,-5.8177899 C 251.2589,2.8769137 249.88312,0.25572541 249.73495,-8.567175e-7 l -24.97552,0 z m 25.58934,0 C 250.43347,0.17048352 251.66105,2.5785726 253.22733,5.6046819 c 1.39695,2.7277397 2.45526,4.6882941 2.77275,5.2849941 l 0,-10.8896768567175 -5.65131,0 z M 33.124414,5.1358467 l 0.10583,0.3622818 c 0.04233,0.1917962 2.772739,10.0159375 5.989961,21.8645965 3.534712,12.828949 5.926464,21.502399 5.989962,21.481089 0.08467,-0.02131 25.017859,-20.969633 24.975527,-21.012255 0,0 -8.360546,-5.135846 -18.541082,-11.358511 L 33.124414,5.1358467 Z M 228.99261,6.4357704 c -0.0212,0 0.0423,8.8438786 0.10584,19.6696236 l 0.12699,19.627058 13.46154,25.700407 13.3131,25.338125 0,-4.070057 L 242.60232,49.97328 C 235.13074,26.020151 228.99261,6.4144596 228.99261,6.4357704 Z M 70.566681,28.215153 c -0.275157,0.170485 -25.208353,21.182738 -25.229519,21.267982 -0.02117,0.08525 15.556685,56.920285 15.641348,57.005525 0.02117,0.0426 2.963232,-2.3868 6.51911,-5.3916 3.534712,-2.983502 6.519109,-5.455258 6.603773,-5.455258 0.08467,0 0.232825,0.149174 0.359821,0.340686 0.105829,0.170485 1.777939,3.537575 3.725205,7.480052 2.307088,4.62442 3.555878,7.07514 3.619376,7.03252 0.317489,-0.25572 50.120665,-42.13094 50.247665,-42.280114 l 0,0 c -0.27516,-0.404904 -0.42333,-0.91636 -0.42333,-1.406506 0,-0.383592 0.10584,-0.809806 0.29633,-1.172087 L 101.34167,46.88323 C 76.979961,31.965749 70.672511,28.15122 70.566681,28.215153 Z M 229.56409,47.629105 c -0.0212,0.06393 16.7846,97.261135 16.97509,98.177485 0.0423,0.21311 1.01597,-2.68514 4.86788,-14.46967 l 4.59302,-14.04374 0,-19.456662 -13.10144,-24.933221 C 235.59639,58.944797 229.58526,47.52255 229.56409,47.629105 Z m -77.19162,9.802916 c 0.80431,0 1.14296,0.02131 1.71444,0.148891 0.95247,0.191796 1.90494,0.554078 2.45526,0.958981 0.9313,0.660631 1.7356,1.875341 2.07426,3.153982 0.23282,0.788495 0.23282,3.068739 0,4.091652 -0.25399,1.21471 -0.63498,2.450729 -1.12179,3.729371 -1.07947,2.749078 -1.98961,3.921167 -3.25956,4.240827 -0.84664,0.255728 -1.52395,0.127863 -2.45525,-0.340971 -1.33345,-0.724564 -2.51875,-2.280244 -4.0427,-5.348983 -0.88897,-1.85403 -1.41811,-3.153983 -1.7991,-4.432623 -0.21166,-0.660631 -0.23283,-0.91636 -0.23283,-2.024515 0,-1.214711 0,-1.299953 0.23283,-1.790099 0.46565,-1.001602 1.46045,-1.768786 2.9209,-2.152379 0.57148,-0.148892 0.9948,-0.191512 2.51875,-0.234134 l 0.99479,0 z m 11.7471,0.255444 c 0.67732,0.02131 1.58744,0.170486 1.73561,0.31966 0.0847,0.08525 -0.0635,0.916361 -0.19049,1.129468 -0.0635,0.106553 -0.14817,0.106553 -0.57148,-0.02131 -0.27517,-0.06393 -0.71965,-0.127865 -0.9948,-0.127865 -0.44449,0 -0.55032,0.02131 -0.76197,0.234417 -0.50799,0.511458 -0.21167,0.958982 0.99479,1.449128 1.37578,0.532767 1.84144,1.150777 1.84144,2.258932 0,1.150777 -0.52915,1.896653 -1.56628,2.195001 -0.57148,0.170485 -1.9896,0.170485 -2.64575,-0.02131 -0.44448,-0.106552 -0.48681,-0.149174 -0.48681,-0.362281 0,-0.170485 0.21166,-1.001602 0.29632,-1.108155 0,0 0.25399,0.06393 0.55032,0.149175 1.01597,0.319659 2.01076,0.170485 2.28592,-0.340972 0.29632,-0.63932 0.0212,-1.065534 -0.97363,-1.470437 -1.18529,-0.468835 -1.52395,-0.767186 -1.77794,-1.299952 -0.1905,-0.404903 -0.21167,-0.554078 -0.1905,-1.044224 0.0635,-1.150777 0.82547,-1.832719 2.15893,-1.917961 0.0847,-0.02131 0.16932,-0.02131 0.29632,-0.02131 z m 4.82583,0.04262 c 0.61382,0 1.20646,0.04262 1.3758,0.106552 0.91012,0.29835 1.33317,0.91636 1.35433,1.811409 0,0.596699 -0.127,1.001602 -0.44421,1.342574 -0.12699,0.149174 -0.10582,0.170485 0.1905,0.468834 0.46537,0.404903 0.65587,0.852428 0.65587,1.598301 0,0.958982 -0.38099,1.555681 -1.24851,1.960585 -0.35983,0.170485 -0.57148,0.191796 -1.71444,0.213106 -0.69848,0 -1.39695,0 -1.54512,-0.02131 l -0.27516,-0.04262 0,-3.644128 0,-3.665438 0.23283,-0.06393 c 0.21165,-0.06393 0.8043,-0.08525 1.41811,-0.06393 z m 6.6035,0.02131 c 0.38098,0 0.63497,0.04262 0.69847,0.106554 0.0635,0.106553 2.32826,7.139081 2.32826,7.245633 0,0.08525 -0.82547,0.149176 -1.16413,0.106555 l -0.33866,-0.06393 -0.21165,-0.745875 -0.21166,-0.745873 -1.12179,-0.02131 -1.14296,-0.02131 -0.16934,0.618009 c -0.10582,0.362281 -0.21165,0.703252 -0.23282,0.788496 -0.0212,0.08525 -0.10583,0.149174 -0.19049,0.149174 -0.0847,0 -0.27516,0.02131 -0.40216,0.04262 -0.31749,0.04262 -0.88897,-0.02131 -0.88897,-0.106555 0,-0.127863 2.24359,-7.13908 2.32826,-7.245633 0.0635,-0.06393 0.31749,-0.106554 0.71964,-0.106554 z m -22.22396,0.234418 c -0.0635,0.02131 0.0847,0.127865 0.38099,0.383592 1.03713,0.788496 2.26476,2.74908 2.83624,4.539177 0.27515,0.809806 0.65614,2.322865 0.65614,2.557284 0,0.106552 0.0212,0.149173 0.0847,0.08525 0.0423,-0.04262 0.127,-0.511456 0.16933,-1.044223 0.31749,-3.047429 -0.95247,-5.519469 -3.28072,-6.307965 -0.50798,-0.149173 -0.78314,-0.234417 -0.84664,-0.213106 z m -2.20126,0.191796 c -0.95246,-0.02131 -1.37578,0.532767 -1.37578,1.726167 0,2.642524 3.17489,9.206217 4.91049,10.058644 0.1905,0.106554 0.42333,0.191796 0.52916,0.191796 0.27516,0 0.71964,-0.319661 0.93129,-0.703253 0.91014,-1.598301 0.57148,-4.262137 -0.95246,-7.480051 -1.14296,-2.493351 -2.15893,-3.516264 -3.61938,-3.750681 -0.14815,-0.04262 -0.29632,-0.04262 -0.42332,-0.04262 z m 17.61007,0.724564 0,0.895048 0,0.91636 0.23282,0 c 0.8043,0 1.31229,-0.362281 1.31229,-0.91636 0,-0.532766 -0.50799,-0.895048 -1.26996,-0.895048 l -0.27515,0 z m 6.77282,1.044224 c -0.0423,0 -0.40216,1.172088 -0.67731,2.216311 -0.0423,0.127864 0.0212,0.149175 0.69848,0.149175 l 0.71963,0 -0.33865,-1.214709 c -0.19049,-0.639321 -0.38098,-1.150777 -0.40215,-1.150777 z m -6.77282,2.003205 0,0.98029 c 0,0.724565 0.0212,1.022914 0.10583,1.065536 0.12699,0.04262 0.99479,-0.04262 1.24878,-0.127865 0.38099,-0.149175 0.52916,-0.404903 0.52916,-0.852427 0,-0.362282 -0.0423,-0.511457 -0.1905,-0.660632 -0.25399,-0.255728 -0.71964,-0.383592 -1.29112,-0.383592 l -0.40215,-0.02131 z m 23.79023,5.412914 0.46566,0 0.46564,0 0,1.193399 c 0,1.129467 0,1.172088 0.14817,1.065534 0.29632,-0.277038 0.71964,-0.426214 1.16413,-0.426214 0.59264,0 0.99479,0.213107 1.22761,0.703253 0.16934,0.340971 0.1905,0.490147 0.1905,2.15238 l 0,1.747476 -0.42332,0 -0.42331,0 0,-1.299952 c -0.0212,-1.55568 -0.0847,-2.045826 -0.33866,-2.280244 -0.27516,-0.213107 -0.78314,-0.213107 -1.07946,0.02131 -0.40216,0.340972 -0.46566,0.660632 -0.46566,2.195002 l 0,1.363883 -0.46564,0 -0.46566,0 0,-3.196603 0,-3.239225 z m -30.83849,0.127865 1.18529,0 c 1.07946,0 1.24879,0.02131 1.56628,0.213107 1.22763,0.639321 1.24879,2.408107 0.0635,3.260535 l -0.35982,0.213106 0.84664,1.257332 c 0.46564,0.681941 0.84663,1.257329 0.84663,1.299951 0,0.04262 -0.23282,0.06393 -0.50798,0.06393 l -0.50799,0 -0.95246,-1.363883 c -0.52914,-0.767186 -0.97363,-1.427817 -0.9948,-1.491749 -0.0212,-0.08525 0.127,-0.191796 0.40216,-0.29835 1.58744,-0.575388 1.37578,-2.408108 -0.27516,-2.408108 l -0.42332,0 0,2.813011 0,2.749079 -0.46565,0 -0.46566,0 0.0212,-3.132672 0.0212,-3.175291 z m -29.31454,1.108155 -25.08164,21.140203 c -13.842247,11.61404 -25.187191,21.16124 -25.250689,21.20386 -0.0635,0.0853 1.03713,2.42941 4.656506,9.63242 2.603411,5.24242 4.741172,9.54719 4.762337,9.58981 0.02117,0.0426 16.403326,3.94248 36.405136,8.58793 l 35.241,8.24723 10.66736,0 c -0.14816,-0.29835 -8.74125,-17.58103 -19.30306,-38.89172 -13.96952,-28.108514 -18.79536,-37.740945 -19.43033,-38.827791 -0.25399,0.08525 -0.52915,0.127864 -0.82548,0.127864 -0.69847,0 -1.3755,-0.277039 -1.84114,-0.809806 z m 49.3584,0.596699 c 0.46566,0 0.9313,0.06393 1.20646,0.191796 0.67731,0.340972 0.74081,0.532768 0.74081,2.557283 l 0,1.726165 -0.57148,0.106555 c -0.97363,0.170485 -1.7356,0.106552 -2.28592,-0.170486 -0.44449,-0.234418 -0.69848,-0.873738 -0.52915,-1.53437 0.16933,-0.724563 0.76198,-1.108155 1.7991,-1.108155 0.65615,0 0.67732,-0.02131 0.67732,-0.234418 0,-0.319661 -0.10584,-0.490146 -0.35983,-0.639321 -0.27515,-0.149174 -0.82547,-0.149174 -1.29111,-0.02131 -0.38099,0.106553 -0.48683,0.02131 -0.48683,-0.404904 0,-0.255728 0.0423,-0.298348 0.31749,-0.362281 0.23283,-0.06393 0.50798,-0.106554 0.78314,-0.106554 z m -8.52987,0 c 0.25399,0.02131 0.48682,0.04262 0.71964,0.106554 0.40216,0.106553 0.42332,0.149174 0.27516,0.575389 -0.0635,0.213106 -0.12699,0.255728 -0.23283,0.213106 -0.0635,-0.02131 -0.38099,-0.06393 -0.65614,-0.08525 -0.42332,-0.04262 -0.59265,-0.02131 -0.74081,0.08525 -0.46565,0.31966 -0.16933,0.703253 0.65615,1.001603 0.93129,0.29835 1.16413,0.575388 1.16413,1.363883 0,0.5967 -0.21167,0.937672 -0.71965,1.172089 -0.46565,0.234417 -1.22763,0.298349 -1.9261,0.170485 -0.46537,-0.106554 -0.50771,-0.170485 -0.33837,-0.639321 l 0.0844,-0.255728 0.52915,0.106554 c 0.6773,0.149174 1.18529,0.04262 1.39695,-0.277039 0.23282,-0.362282 0.0423,-0.639321 -0.71965,-0.93767 -0.33864,-0.127865 -0.76197,-0.319661 -0.88896,-0.404903 -0.42304,-0.319661 -0.52887,-1.150778 -0.21166,-1.640923 0.23282,-0.362283 0.91013,-0.575389 1.60861,-0.554079 z m -4.71972,0 c 0.65614,0 0.99479,0.149176 1.39695,0.575389 0.31749,0.383592 0.48681,0.937671 0.48681,1.662233 l 0,0.383593 -1.50277,0 c -1.12181,0 -1.48162,0.02131 -1.48162,0.106554 0,0.277038 0.33866,0.852427 0.57148,0.95898 0.46565,0.255729 1.22763,0.255729 1.84143,0.02131 0.10583,-0.04262 0.16933,0.02131 0.23283,0.277039 0.12699,0.447525 0.12699,0.426214 -0.1905,0.532767 -0.46564,0.170485 -1.52395,0.191797 -1.96843,0.06393 -0.50798,-0.149175 -0.95247,-0.490147 -1.20646,-0.937671 -0.16932,-0.29835 -0.19049,-0.490146 -0.19049,-1.278641 0,-0.788495 0.0212,-0.980291 0.16933,-1.257331 0.42332,-0.767184 0.9948,-1.108156 1.84144,-1.108156 z m 8.97407,0 c 1.16413,0.02131 1.79911,0.745875 1.79911,2.067137 l 0,0.554078 -1.48162,0 -1.43928,0 0.0423,0.31966 c 0.10583,0.681943 0.84664,1.065535 1.71444,0.91636 0.25399,-0.04262 0.50798,-0.106553 0.59265,-0.149175 0.10583,-0.04262 0.16932,0 0.23282,0.191796 0.16934,0.447524 0.0847,0.575388 -0.42331,0.681943 -1.16413,0.277038 -2.07426,0.04262 -2.62458,-0.5967 -0.35982,-0.426213 -0.48682,-0.852428 -0.48682,-1.662234 0,-1.513059 0.74081,-2.322865 2.07426,-2.322865 z m 12.84773,0.02131 c 0.55031,0 1.10063,0.08525 1.10063,0.234417 0,0.02131 -0.0423,0.191796 -0.0847,0.383592 -0.0635,0.255729 -0.127,0.319661 -0.23283,0.27704 -0.38098,-0.149175 -1.10063,-0.149175 -1.39695,0 -0.82547,0.468836 -0.91014,2.258933 -0.12699,2.749078 0.31748,0.191797 0.7408,0.255729 1.33345,0.149176 0.38099,-0.06393 0.42332,-0.04262 0.46564,0.127864 0.10584,0.383592 0.0635,0.554077 -0.14815,0.61801 -0.29633,0.08525 -1.29113,0.127863 -1.48162,0.08525 -0.8043,-0.213107 -1.18529,-0.468836 -1.46045,-1.108156 -0.29632,-0.639321 -0.29632,-1.726166 0,-2.365486 0.21166,-0.511457 0.69848,-0.916361 1.16413,-1.065535 0.21165,-0.06393 0.55031,-0.106554 0.8678,-0.08525 z m -5.22799,0.06393 0.38099,0 c 0.38098,0 0.40215,0.02131 0.44448,0.255729 l 0.0635,0.255727 0.25399,-0.213106 c 0.29633,-0.234417 0.52915,-0.319661 0.91014,-0.277039 0.31749,0.02131 0.40216,0.213107 0.29632,0.639321 -0.0423,0.170485 -0.10583,0.213106 -0.33865,0.213106 -0.42332,0 -0.76197,0.213108 -0.93131,0.554079 -0.10582,0.255728 -0.12699,0.596698 -0.12699,1.726166 l 0,1.363883 -0.48682,0 -0.46565,0 0,-2.237622 0,-2.280244 z m -16.63615,0.703253 c -0.19049,0 -0.42331,0.04262 -0.52914,0.127864 -0.21166,0.149175 -0.44449,0.575388 -0.44449,0.809806 0,0.106553 0.14816,0.127864 0.97363,0.127864 1.10063,0 1.1218,-0.02131 0.84664,-0.532767 -0.16932,-0.383592 -0.44448,-0.532767 -0.84664,-0.532767 z m 8.99525,0 c -0.19049,-0.02131 -0.38099,0.02131 -0.52915,0.08525 -0.21166,0.106553 -0.55031,0.639321 -0.55031,0.895049 0,0.04262 0.35982,0.08525 1.01596,0.08525 l 1.03713,0 -0.0847,-0.255728 c -0.12699,-0.426213 -0.19049,-0.554078 -0.38099,-0.681942 -0.12699,-0.08525 -0.31748,-0.127864 -0.50798,-0.127864 z m 4.76234,1.683544 c -0.27516,0 -0.57148,0.06393 -0.76198,0.191796 -0.40215,0.255729 -0.29633,0.980292 0.16933,1.172088 0.21166,0.08525 0.69847,0.106554 0.95247,0.04262 0.19049,-0.04262 0.21166,-0.106554 0.21166,-0.681942 l 0,-0.660631 -0.29633,-0.04262 c -0.0847,-0.02131 -0.16933,-0.02131 -0.27515,-0.02131 z M 73.974398,96.32346 c -0.465651,0.340971 -12.487906,10.50616 -12.636067,10.65534 l -0.211659,0.1918 1.926101,6.90466 c 1.03713,3.79331 1.989597,7.33088 2.053095,7.52267 0.190494,-0.0426 0.359822,-0.0639 0.550315,-0.0639 0.740808,0 1.439284,0.29836 1.989598,0.83111 0.148162,-0.0853 3.259555,-2.68514 6.942429,-5.75388 l 6.751935,-5.71125 -1.523948,-3.04744 c -0.846638,-1.68354 -2.497581,-4.96539 -3.640542,-7.33088 -1.481616,-2.98349 -2.137759,-4.240822 -2.201257,-4.1982 z m -13.271045,11.25205 c -0.04233,-0.0426 -44.617351,37.39996 -46.903273,39.42448 l 63.984187,0 c -0.296324,-0.57538 -10.244315,-18.58263 -10.79463,-19.52031 l -0.211659,-0.42621 c -0.359821,0.14918 -0.740808,0.23441 -1.121795,0.23441 -1.56628,0 -2.836236,-1.27863 -2.836236,-2.85562 0,-1.21471 0.740808,-2.28025 1.820271,-2.70646 l -1.947267,-7.07515 c -1.079463,-3.87854 -1.968433,-7.05384 -1.989598,-7.07514 z m 20.742621,3.92116 c -0.02117,0 -0.04233,0.0213 -0.0635,0.0426 -0.126996,0.10655 -13.249879,11.14549 -13.376874,11.23074 l 0,0.0213 c 0.317489,0.46883 0.507982,1.02291 0.507982,1.64092 0,0.14918 0,0.31966 -0.04233,0.46884 l 11.027455,2.57858 c 6.074625,1.3852 11.112119,2.55729 11.196782,2.55729 0.126996,0.0213 -0.190493,-0.68194 -1.502781,-3.32447 -0.931301,-1.8114 -3.005564,-6.03092 -4.656508,-9.33409 -2.582244,-5.1998 -2.920899,-5.90305 -3.090227,-5.88174 z m 174.554106,7.37349 -4.48719,13.70278 c -1.52395,4.66675 -2.87856,8.7371 -4.61389,14.42705 l 9.10108,0 0,-28.12983 z m -187.655823,6.47846 0,0 c -0.190494,0.61801 -0.592646,1.12947 -1.142961,1.47044 l 5.608975,10.12229 c 2.963231,5.32767 5.397315,9.73899 5.566642,10.05864 l 20.869335,0 -1.608611,-3.23923 c -0.952467,-1.96058 -2.814789,-5.66863 -4.10591,-8.28985 -1.291123,-2.62093 -2.370586,-4.7307 -2.391752,-4.752 0,-0.0213 -5.05866,-1.23602 -11.217948,-2.66384 -6.159289,-1.44912 -11.450774,-2.66383 -11.57777,-2.70645 z m 23.473029,5.54077 c 0,0 1.799104,3.70779 4.063577,8.18303 l 3.9157,7.92757 61.211617,0 c -3.59821,-0.87375 -69.169729,-16.15322 -69.190894,-16.1106 z"
       id="path7"
       inkscape:connector-curvature="0" />
  </g>
</svg>
